<svg width="85" height="14" viewBox="0 0 85 14" fill="none" xmlns="http://www.w3.org/2000/svg">
<rect width="85" height="14" rx="2" fill="url(#paint0_linear_3590_11027)"/>
<path d="M8.18 11.1C7.47333 11.1 6.83333 10.9467 6.26 10.64C5.69333 10.3267 5.24667 9.89667 4.92 9.35C4.6 8.80333 4.44 8.18667 4.44 7.5C4.44 6.81333 4.60333 6.19667 4.93 5.65C5.25667 5.10333 5.70333 4.67667 6.27 4.37C6.84333 4.05667 7.48333 3.9 8.19 3.9C8.76333 3.9 9.28667 4 9.76 4.2C10.2333 4.4 10.6333 4.69 10.96 5.07L10.12 5.86C9.61333 5.31333 8.99 5.04 8.25 5.04C7.77 5.04 7.34 5.14667 6.96 5.36C6.58 5.56667 6.28333 5.85667 6.07 6.23C5.85667 6.60333 5.75 7.02667 5.75 7.5C5.75 7.97333 5.85667 8.39667 6.07 8.77C6.28333 9.14333 6.58 9.43667 6.96 9.65C7.34 9.85667 7.77 9.96 8.25 9.96C8.99 9.96 9.61333 9.68333 10.12 9.13L10.96 9.93C10.6333 10.31 10.23 10.6 9.75 10.8C9.27667 11 8.75333 11.1 8.18 11.1ZM15.3291 11.1C14.6158 11.1 13.9725 10.9467 13.3991 10.64C12.8258 10.3267 12.3758 9.89667 12.0491 9.35C11.7225 8.79667 11.5591 8.18 11.5591 7.5C11.5591 6.82 11.7225 6.20667 12.0491 5.66C12.3758 5.10667 12.8258 4.67667 13.3991 4.37C13.9725 4.05667 14.6158 3.9 15.3291 3.9C16.0425 3.9 16.6858 4.05667 17.2591 4.37C17.8325 4.67667 18.2825 5.10333 18.6091 5.65C18.9358 6.19667 19.0991 6.81333 19.0991 7.5C19.0991 8.18667 18.9358 8.80333 18.6091 9.35C18.2825 9.89667 17.8325 10.3267 17.2591 10.64C16.6858 10.9467 16.0425 11.1 15.3291 11.1ZM15.3291 9.96C15.7958 9.96 16.2158 9.85667 16.5891 9.65C16.9625 9.43667 17.2558 9.14333 17.4691 8.77C17.6825 8.39 17.7891 7.96667 17.7891 7.5C17.7891 7.03333 17.6825 6.61333 17.4691 6.24C17.2558 5.86 16.9625 5.56667 16.5891 5.36C16.2158 5.14667 15.7958 5.04 15.3291 5.04C14.8625 5.04 14.4425 5.14667 14.0691 5.36C13.6958 5.56667 13.4025 5.86 13.1891 6.24C12.9758 6.61333 12.8691 7.03333 12.8691 7.5C12.8691 7.96667 12.9758 8.39 13.1891 8.77C13.4025 9.14333 13.6958 9.43667 14.0691 9.65C14.4425 9.85667 14.8625 9.96 15.3291 9.96ZM26.9071 11L26.8971 6.36L24.5971 10.2H24.0171L21.7171 6.42V11H20.4771V4H21.5471L24.3271 8.64L27.0571 4H28.1271L28.1371 11H26.9071ZM30.0279 4H31.3279V11H30.0279V4ZM39.4413 4V11H38.3713L34.5113 6.26V11H33.2213V4H34.2913L38.1513 8.74V4H39.4413ZM46.097 7.42H47.327V10.21C46.967 10.4967 46.547 10.7167 46.067 10.87C45.587 11.0233 45.0936 11.1 44.587 11.1C43.8736 11.1 43.2303 10.9467 42.657 10.64C42.0836 10.3267 41.6336 9.89667 41.307 9.35C40.9803 8.80333 40.817 8.18667 40.817 7.5C40.817 6.81333 40.9803 6.19667 41.307 5.65C41.6336 5.10333 42.0836 4.67667 42.657 4.37C43.237 4.05667 43.887 3.9 44.607 3.9C45.1936 3.9 45.727 3.99667 46.207 4.19C46.687 4.38333 47.0903 4.66667 47.417 5.04L46.597 5.84C46.0636 5.30667 45.4203 5.04 44.667 5.04C44.1736 5.04 43.7336 5.14333 43.347 5.35C42.967 5.55667 42.667 5.84667 42.447 6.22C42.2336 6.59333 42.127 7.02 42.127 7.5C42.127 7.96667 42.2336 8.38667 42.447 8.76C42.667 9.13333 42.967 9.42667 43.347 9.64C43.7336 9.85333 44.1703 9.96 44.657 9.96C45.2036 9.96 45.6836 9.84 46.097 9.6V7.42ZM53.9752 11.1C53.4352 11.1 52.9119 11.0233 52.4052 10.87C51.9052 10.7167 51.5086 10.5133 51.2152 10.26L51.6652 9.25C51.9519 9.47667 52.3019 9.66333 52.7152 9.81C53.1352 9.95 53.5552 10.02 53.9752 10.02C54.4952 10.02 54.8819 9.93667 55.1352 9.77C55.3952 9.60333 55.5252 9.38333 55.5252 9.11C55.5252 8.91 55.4519 8.74667 55.3052 8.62C55.1652 8.48667 54.9852 8.38333 54.7652 8.31C54.5452 8.23667 54.2452 8.15333 53.8652 8.06C53.3319 7.93333 52.8986 7.80667 52.5652 7.68C52.2386 7.55333 51.9552 7.35667 51.7152 7.09C51.4819 6.81667 51.3652 6.45 51.3652 5.99C51.3652 5.60333 51.4686 5.25333 51.6752 4.94C51.8886 4.62 52.2052 4.36667 52.6252 4.18C53.0519 3.99333 53.5719 3.9 54.1852 3.9C54.6119 3.9 55.0319 3.95333 55.4452 4.06C55.8586 4.16667 56.2152 4.32 56.5152 4.52L56.1052 5.53C55.7986 5.35 55.4786 5.21333 55.1452 5.12C54.8119 5.02667 54.4886 4.98 54.1752 4.98C53.6619 4.98 53.2786 5.06667 53.0252 5.24C52.7786 5.41333 52.6552 5.64333 52.6552 5.93C52.6552 6.13 52.7252 6.29333 52.8652 6.42C53.0119 6.54667 53.1952 6.64667 53.4152 6.72C53.6352 6.79333 53.9352 6.87667 54.3152 6.97C54.8352 7.09 55.2619 7.21667 55.5952 7.35C55.9286 7.47667 56.2119 7.67333 56.4452 7.94C56.6852 8.20667 56.8052 8.56667 56.8052 9.02C56.8052 9.40667 56.6986 9.75667 56.4852 10.07C56.2786 10.3833 55.9619 10.6333 55.5352 10.82C55.1086 11.0067 54.5886 11.1 53.9752 11.1ZM61.3643 11.1C60.651 11.1 60.0076 10.9467 59.4343 10.64C58.861 10.3267 58.411 9.89667 58.0843 9.35C57.7576 8.79667 57.5943 8.18 57.5943 7.5C57.5943 6.82 57.7576 6.20667 58.0843 5.66C58.411 5.10667 58.861 4.67667 59.4343 4.37C60.0076 4.05667 60.651 3.9 61.3643 3.9C62.0776 3.9 62.721 4.05667 63.2943 4.37C63.8676 4.67667 64.3176 5.10333 64.6443 5.65C64.971 6.19667 65.1343 6.81333 65.1343 7.5C65.1343 8.18667 64.971 8.80333 64.6443 9.35C64.3176 9.89667 63.8676 10.3267 63.2943 10.64C62.721 10.9467 62.0776 11.1 61.3643 11.1ZM61.3643 9.96C61.831 9.96 62.251 9.85667 62.6243 9.65C62.9976 9.43667 63.291 9.14333 63.5043 8.77C63.7176 8.39 63.8243 7.96667 63.8243 7.5C63.8243 7.03333 63.7176 6.61333 63.5043 6.24C63.291 5.86 62.9976 5.56667 62.6243 5.36C62.251 5.14667 61.831 5.04 61.3643 5.04C60.8976 5.04 60.4776 5.14667 60.1043 5.36C59.731 5.56667 59.4376 5.86 59.2243 6.24C59.011 6.61333 58.9043 7.03333 58.9043 7.5C58.9043 7.96667 59.011 8.39 59.2243 8.77C59.4376 9.14333 59.731 9.43667 60.1043 9.65C60.4776 9.85667 60.8976 9.96 61.3643 9.96ZM69.7823 11.1C69.0689 11.1 68.4256 10.9467 67.8523 10.64C67.2789 10.3267 66.8289 9.89667 66.5023 9.35C66.1756 8.79667 66.0123 8.18 66.0123 7.5C66.0123 6.82 66.1756 6.20667 66.5023 5.66C66.8289 5.10667 67.2789 4.67667 67.8523 4.37C68.4256 4.05667 69.0689 3.9 69.7823 3.9C70.4956 3.9 71.1389 4.05667 71.7123 4.37C72.2856 4.67667 72.7356 5.10333 73.0623 5.65C73.3889 6.19667 73.5523 6.81333 73.5523 7.5C73.5523 8.18667 73.3889 8.80333 73.0623 9.35C72.7356 9.89667 72.2856 10.3267 71.7123 10.64C71.1389 10.9467 70.4956 11.1 69.7823 11.1ZM69.7823 9.96C70.2489 9.96 70.6689 9.85667 71.0423 9.65C71.4156 9.43667 71.7089 9.14333 71.9223 8.77C72.1356 8.39 72.2423 7.96667 72.2423 7.5C72.2423 7.03333 72.1356 6.61333 71.9223 6.24C71.7089 5.86 71.4156 5.56667 71.0423 5.36C70.6689 5.14667 70.2489 5.04 69.7823 5.04C69.3156 5.04 68.8956 5.14667 68.5223 5.36C68.1489 5.56667 67.8556 5.86 67.6423 6.24C67.4289 6.61333 67.3223 7.03333 67.3223 7.5C67.3223 7.96667 67.4289 8.39 67.6423 8.77C67.8556 9.14333 68.1489 9.43667 68.5223 9.65C68.8956 9.85667 69.3156 9.96 69.7823 9.96ZM81.1502 4V11H80.0802L76.2202 6.26V11H74.9302V4H76.0002L79.8602 8.74V4H81.1502Z" fill="#181818"/>
<defs>
<linearGradient id="paint0_linear_3590_11027" x1="42.5" y1="0" x2="42.5" y2="14" gradientUnits="userSpaceOnUse">
<stop stop-color="#10FFC6"/>
<stop offset="1" stop-color="#10FFFF"/>
</linearGradient>
</defs>
</svg>
